<?xml version="1.0"?>
<svg width="180" height="38" xmlns="http://www.w3.org/2000/svg" xmlns:svg="http://www.w3.org/2000/svg">
 <g class="layer" display="inline">
  <title>Layer 1</title>
  <path d="m10.03,8.87c-0.04,-0.05 -0.07,-0.11 -0.12,-0.17c-0.02,-0.03 -0.03,-0.03 -0.03,-0.03c-0.02,-0.03 -0.04,-0.05 -0.08,-0.1c-0.16,-0.2 -0.31,-0.38 -0.46,-0.56c0,0 -0.02,0 -0.01,-0.01c-0.16,-0.21 -0.31,-0.41 -0.47,-0.61c-0.03,-0.03 -0.08,-0.08 -0.12,-0.08c-0.16,0 -0.33,-0.03 -0.48,0.05c-0.94,0.44 -1.8,1 -2.56,1.7c-1.25,1.15 -2.15,2.52 -2.69,4.13c-0.16,0.47 -0.31,0.95 -0.37,1.45c0,0.02 -0.01,0.03 -0.02,0.08c-0.01,0.05 -0.01,0.08 -0.01,0.12c-0.01,0.03 -0.02,0.06 -0.03,0.11c-0.01,0.1 -0.02,0.17 -0.02,0.24c-0.01,0.02 -0.01,0.04 -0.02,0.08c-0.02,0.18 -0.04,0.33 -0.05,0.48c0,0.48 -0.01,0.95 -0.01,1.46c0.01,0.09 0.02,0.14 0.03,0.2c0,0.06 0.01,0.11 0.01,0.2c0.01,0.05 0.02,0.09 0.03,0.12c0,0.05 0.01,0.11 0.02,0.19c0.01,0.05 0.01,0.07 0.02,0.09c0,0.04 0.01,0.08 0.01,0.15c0.01,0.04 0.02,0.06 0.03,0.08c0.01,0.1 0.02,0.19 0.04,0.32c0.02,0.06 0.03,0.09 0.04,0.12c0.08,0.31 0.14,0.63 0.24,0.93c0.15,0.42 0.33,0.82 0.5,1.25c0.04,0.06 0.06,0.1 0.08,0.13c0.02,0.04 0.04,0.09 0.06,0.15c0.01,0.02 0.02,0.03 0.03,0.03c0,0 0,0 0,0.02c0.03,0.04 0.05,0.08 0.07,0.11c0.23,0.36 0.46,0.73 0.69,1.1c0.01,0.02 0.02,0.03 0.02,0.03l0.01,0c0,0 0,0.01 0.01,0.02c0.08,0.1 0.15,0.19 0.22,0.28c0.04,0.05 0.07,0.09 0.12,0.16c0.23,0.26 0.45,0.5 0.68,0.74c0.12,0.12 0.27,0.23 0.4,0.35c0.01,0.01 0.02,0.02 0.04,0.05c0.05,0.04 0.08,0.06 0.11,0.08c0.01,0.01 0.02,0.02 0.04,0.04c0.21,0.16 0.41,0.31 0.6,0.45c0.06,0.05 0.13,0.09 0.21,0.16c0.05,0.03 0.08,0.04 0.1,0.06c0.08,0.1 0.02,0.19 0,0.31c-0.01,0.05 -0.01,0.07 -0.01,0.09c-0.03,0.16 -0.07,0.32 -0.11,0.5c0,0.05 -0.01,0.07 -0.01,0.09c-0.05,0.23 -0.09,0.45 -0.15,0.71c-0.01,0.04 -0.01,0.06 -0.01,0.08c-0.01,0.02 -0.01,0.04 -0.03,0.08c0,0.04 -0.01,0.06 -0.01,0.08c-0.02,0.1 -0.04,0.19 -0.07,0.31c-0.03,0.1 -0.03,0.17 -0.06,0.23c-0.01,0.03 -0.06,0.05 -0.09,0.07c-0.07,-0.04 -0.14,-0.09 -0.23,-0.14c-0.07,-0.04 -0.11,-0.06 -0.16,-0.09c-0.07,-0.04 -0.13,-0.09 -0.21,-0.14c-0.11,-0.07 -0.19,-0.11 -0.27,-0.16c-0.03,-0.03 -0.06,-0.05 -0.11,-0.09c-0.05,-0.03 -0.09,-0.05 -0.13,-0.07c-0.08,-0.07 -0.16,-0.13 -0.27,-0.21c-0.09,-0.07 -0.17,-0.12 -0.25,-0.18c-0.01,-0.02 -0.02,-0.03 -0.05,-0.06c-0.05,-0.03 -0.07,-0.05 -0.1,-0.06c-0.03,-0.03 -0.05,-0.05 -0.09,-0.09c-0.02,-0.01 -0.02,-0.02 -0.03,-0.01c0,0 -0.01,-0.02 -0.02,-0.02c0,-0.01 -0.01,-0.01 -0.01,-0.01c-0.07,-0.06 -0.14,-0.12 -0.22,-0.19c-0.01,-0.01 -0.02,-0.01 -0.02,-0.01c-0.35,-0.35 -0.7,-0.7 -1.06,-1.06c0,-0.01 -0.01,-0.01 -0.01,-0.01c-0.06,-0.07 -0.12,-0.15 -0.19,-0.24c-0.05,-0.05 -0.09,-0.08 -0.12,-0.12c0,0 -0.01,0.01 -0.01,0c-0.05,-0.08 -0.1,-0.14 -0.16,-0.19c0,0 0,0.01 0,-0.01c-0.03,-0.05 -0.05,-0.08 -0.08,-0.11c-0.03,-0.05 -0.06,-0.09 -0.11,-0.16c-0.05,-0.06 -0.09,-0.11 -0.13,-0.16c0,0 0,0.01 0,-0.01c-0.05,-0.07 -0.1,-0.13 -0.14,-0.19c0,0 -0.01,0 -0.01,-0.02c-0.04,-0.07 -0.09,-0.13 -0.13,-0.19c-0.06,-0.1 -0.11,-0.19 -0.18,-0.3c-0.03,-0.04 -0.04,-0.05 -0.06,-0.07c0,0 0,0 0,-0.02c-0.08,-0.13 -0.16,-0.26 -0.23,-0.38c-0.01,-0.02 -0.02,-0.04 -0.04,-0.08c-0.04,-0.08 -0.08,-0.15 -0.12,-0.21c0,-0.01 -0.01,-0.03 -0.02,-0.07c-0.01,-0.01 -0.02,-0.02 -0.02,-0.02c-0.01,-0.01 -0.01,-0.03 -0.03,-0.06c-0.02,-0.04 -0.04,-0.06 -0.05,-0.08c-0.07,-0.16 -0.15,-0.32 -0.23,-0.51c-0.04,-0.07 -0.06,-0.11 -0.08,-0.16c-0.03,-0.06 -0.05,-0.12 -0.08,-0.2c-0.04,-0.11 -0.08,-0.2 -0.12,-0.29c0,0 0,-0.01 0,-0.03c-0.02,-0.05 -0.03,-0.07 -0.05,-0.1c0,-0.01 0,-0.02 0,-0.05c-0.03,-0.08 -0.06,-0.14 -0.08,-0.2c-0.04,-0.12 -0.08,-0.24 -0.12,-0.39c-0.02,-0.04 -0.03,-0.06 -0.04,-0.08c-0.03,-0.13 -0.06,-0.25 -0.1,-0.4c-0.02,-0.07 -0.04,-0.11 -0.05,-0.16c-0.02,-0.08 -0.04,-0.17 -0.06,-0.28c-0.01,-0.04 -0.02,-0.05 -0.02,-0.07c-0.01,-0.03 -0.01,-0.06 -0.01,-0.12c-0.02,-0.04 -0.03,-0.06 -0.04,-0.08c0,-0.02 0,-0.04 0,-0.08c-0.01,-0.04 -0.02,-0.06 -0.03,-0.08c-0.01,-0.04 -0.01,-0.09 -0.02,-0.16c-0.01,-0.04 -0.02,-0.06 -0.02,-0.08c-0.02,-0.09 -0.03,-0.19 -0.04,-0.32c-0.01,-0.06 -0.02,-0.09 -0.02,-0.13c-0.01,-0.02 -0.01,-0.04 -0.02,-0.08c0,-0.06 -0.01,-0.1 -0.01,-0.16c-0.01,-0.07 -0.02,-0.12 -0.03,-0.18c-0.01,-0.08 -0.01,-0.16 -0.01,-0.28c-0.01,-0.1 -0.02,-0.17 -0.03,-0.23c0,-0.3 0,-0.59 0,-0.91c-0.01,-0.09 -0.01,-0.15 -0.01,-0.21c0.01,-0.09 0.01,-0.18 0.02,-0.31c0.01,-0.1 0.01,-0.17 0.01,-0.24c0.01,-0.08 0.02,-0.16 0.03,-0.27c0,-0.07 0.01,-0.12 0.01,-0.18c0.01,-0.07 0.02,-0.13 0.03,-0.19c0,-0.03 0,-0.05 0.01,-0.09c0.01,-0.04 0.01,-0.07 0.01,-0.1c0,-0.02 0.01,-0.04 0.02,-0.07c0,-0.02 0,-0.03 0,-0.03l-0.01,-0.01c0.01,-0.05 0.03,-0.11 0.04,-0.2c0.01,-0.05 0.01,-0.07 0.01,-0.09c0.01,-0.06 0.03,-0.13 0.05,-0.23c0.02,-0.1 0.03,-0.17 0.04,-0.24c0,0 0,-0.01 0.01,-0.02c0.01,-0.04 0.02,-0.07 0.02,-0.1c0.02,-0.08 0.04,-0.17 0.07,-0.27c0.01,-0.05 0.01,-0.07 0.02,-0.1c0.01,-0.04 0.02,-0.07 0.02,-0.1c0.02,-0.03 0.03,-0.06 0.05,-0.12c0.04,-0.12 0.06,-0.22 0.09,-0.31c0.08,-0.24 0.16,-0.48 0.24,-0.73c0.02,-0.04 0.04,-0.08 0.06,-0.15c0.14,-0.32 0.27,-0.62 0.4,-0.91c0.02,-0.05 0.05,-0.09 0.08,-0.16c0.03,-0.06 0.05,-0.11 0.07,-0.16c0,0 0,0 0.01,-0.01c0.28,-0.45 0.55,-0.89 0.82,-1.33c0.14,-0.21 0.29,-0.4 0.43,-0.6c0,0 0.01,0 0.02,-0.01c0.47,-0.57 0.95,-1.1 1.5,-1.58c0.18,-0.15 0.37,-0.31 0.55,-0.47c0,0 0,0 0.01,-0.01c0.06,-0.03 0.11,-0.07 0.16,-0.1c0.67,-0.52 1.39,-0.95 2.15,-1.33c1.19,-0.58 2.45,-0.93 3.76,-1.12c1.2,-0.17 2.4,-0.16 3.6,0.03c1.05,0.17 2.06,0.46 3.03,0.89c1.62,0.71 3.03,1.7 4.22,3.01c0.17,0.18 0.33,0.36 0.49,0.54c0.05,0.06 0.09,0.12 0.15,0.2c0.16,0.2 0.3,0.39 0.45,0.58c0,0 0,0 0,0.01c0.04,0.07 0.08,0.11 0.11,0.16c0.01,0.02 0.02,0.04 0.04,0.08c0.06,0.09 0.11,0.16 0.16,0.23c0,0 0.01,0 0.01,0.01c0.03,0.06 0.06,0.11 0.09,0.16c0.03,0.04 0.05,0.09 0.09,0.15c0.19,0.37 0.38,0.72 0.57,1.06c0.02,0.06 0.04,0.12 0.07,0.2c0.04,0.07 0.06,0.11 0.08,0.16c0.02,0.05 0.04,0.1 0.06,0.17c0.04,0.09 0.07,0.16 0.1,0.23c0.03,0.07 0.05,0.14 0.08,0.23c0.03,0.09 0.06,0.14 0.08,0.2c0.01,0.05 0.02,0.09 0.04,0.16c0.05,0.14 0.09,0.25 0.12,0.36c0.03,0.09 0.05,0.19 0.08,0.31c0.02,0.06 0.03,0.09 0.04,0.12c0.04,0.16 0.07,0.33 0.11,0.52c0.02,0.08 0.04,0.14 0.05,0.19c0.02,0.13 0.04,0.25 0.06,0.39c0.01,0.05 0.02,0.07 0.02,0.09c0.01,0.05 0.01,0.11 0.02,0.2c0.02,0.15 0.04,0.27 0.06,0.39c0,0.02 0,0.04 0,0.09c0.02,0.13 0.03,0.24 0.04,0.35c0,0.05 0,0.11 0,0.2c0.01,0.39 0.02,0.75 0.03,1.11c-0.01,0.13 -0.02,0.26 -0.04,0.43c-0.01,0.13 -0.01,0.22 -0.02,0.32c0,0.03 -0.01,0.06 -0.02,0.12c-0.02,0.15 -0.03,0.27 -0.05,0.4c-0.01,0.05 -0.01,0.1 -0.03,0.18c0,0.05 0,0.07 0,0.09c-0.01,0.04 -0.02,0.09 -0.04,0.16c-0.03,0.18 -0.06,0.33 -0.09,0.48c0,0.03 -0.01,0.06 -0.03,0.11c-0.06,0.26 -0.12,0.49 -0.18,0.72c-0.43,1.51 -1.14,2.88 -2.09,4.13c-0.13,0.18 -0.26,0.35 -0.39,0.52c0,0 0,0.01 -0.01,0.01c-0.29,0.29 -0.56,0.58 -0.84,0.87c-0.03,0.04 -0.06,0.08 -0.1,0.12c0,0 0.01,0.01 0,0.01c-0.12,0.09 -0.21,0.18 -0.31,0.27c0,0 0.01,0.01 -0.01,0.01c-0.7,0.57 -1.42,1.11 -2.23,1.53c-0.03,-0.12 -0.06,-0.21 -0.09,-0.3c-0.01,-0.07 -0.02,-0.14 -0.04,-0.24c-0.03,-0.14 -0.05,-0.25 -0.08,-0.36c0,-0.03 0,-0.06 -0.01,-0.11c-0.01,-0.05 -0.02,-0.06 -0.03,-0.08c0,-0.03 0,-0.06 -0.01,-0.12c-0.01,-0.04 -0.02,-0.06 -0.03,-0.08c0,-0.02 0,-0.04 0,-0.08c-0.04,-0.19 -0.08,-0.35 -0.12,-0.52c0,-0.03 0,-0.06 -0.01,-0.12c-0.01,-0.03 -0.01,-0.03 -0.02,-0.04c0,-0.01 0,-0.03 -0.01,-0.08c-0.01,-0.09 -0.02,-0.16 -0.04,-0.22c-0.03,-0.11 -0.01,-0.18 0.09,-0.24c0.11,-0.07 0.22,-0.15 0.32,-0.23c0.24,-0.2 0.48,-0.41 0.72,-0.61c0,0 0.02,0 0.03,-0.01c0.02,-0.01 0.03,-0.02 0.03,-0.03c0.02,-0.02 0.05,-0.04 0.09,-0.07c0.08,-0.08 0.14,-0.14 0.2,-0.21c0.01,0 0.02,0 0.04,-0.03c0.19,-0.19 0.37,-0.36 0.52,-0.54c0.19,-0.22 0.36,-0.46 0.55,-0.69c0,0 -0.01,-0.01 0.01,-0.01c0.21,-0.32 0.41,-0.64 0.61,-0.95c0,0 0,0 0.01,-0.01c0,0 0,-0.01 0,-0.01c0.02,-0.03 0.04,-0.06 0.07,-0.12c0.04,-0.07 0.06,-0.12 0.08,-0.17c0,0 0.01,-0.01 0.02,-0.03c0.06,-0.11 0.1,-0.2 0.15,-0.3c0.01,-0.01 0.01,-0.02 0.01,-0.03c0.02,-0.04 0.04,-0.09 0.08,-0.15c0.01,-0.03 0.01,-0.05 0.02,-0.06c0.02,-0.01 0.02,-0.02 0.01,-0.03c0.03,-0.08 0.07,-0.16 0.12,-0.27c0.08,-0.23 0.15,-0.43 0.22,-0.64c0.01,-0.01 0.01,-0.02 0.03,-0.06c0.04,-0.15 0.08,-0.28 0.12,-0.42c0,-0.01 0.01,-0.03 0.02,-0.07c0.03,-0.1 0.04,-0.17 0.05,-0.24c0.01,-0.02 0.02,-0.04 0.03,-0.08c0.02,-0.11 0.04,-0.19 0.05,-0.28c0.01,-0.02 0.01,-0.03 0.03,-0.08c0.01,-0.05 0.01,-0.08 0.01,-0.12c0.01,-0.03 0.01,-0.06 0.03,-0.11c0.01,-0.09 0.01,-0.15 0.02,-0.2c0,-0.02 0.01,-0.04 0.02,-0.08c0.01,-0.09 0.01,-0.14 0.01,-0.2c0.01,-0.04 0.02,-0.09 0.03,-0.16c0.01,-0.1 0.01,-0.17 0.02,-0.24c0,-0.03 0.01,-0.06 0.02,-0.12c0.01,-0.27 0.01,-0.51 0.01,-0.75c0,-0.11 -0.01,-0.21 -0.02,-0.31c0,-0.06 0,-0.11 0,-0.2c-0.02,-0.13 -0.03,-0.22 -0.04,-0.32c0,-0.04 0,-0.08 -0.01,-0.16c-0.01,-0.07 -0.02,-0.11 -0.03,-0.16c0,-0.05 0,-0.11 -0.01,-0.19c-0.01,-0.06 -0.02,-0.09 -0.03,-0.12c0,-0.03 0,-0.07 -0.01,-0.12c-0.01,-0.06 -0.02,-0.09 -0.03,-0.11c0,-0.02 0,-0.03 0,-0.07c-0.03,-0.1 -0.05,-0.18 -0.07,-0.26c-0.02,-0.13 -0.04,-0.25 -0.07,-0.4c0,-0.01 -0.02,-0.02 -0.02,-0.02c0,-0.02 0,-0.04 -0.01,-0.09c-0.01,-0.04 -0.02,-0.06 -0.03,-0.08c0,-0.02 -0.01,-0.04 -0.02,-0.08c0,-0.03 -0.01,-0.03 -0.01,-0.03c-0.02,-0.08 -0.04,-0.15 -0.07,-0.25c-0.05,-0.14 -0.09,-0.25 -0.13,-0.36c-0.02,-0.06 -0.03,-0.12 -0.06,-0.2c-0.03,-0.07 -0.05,-0.12 -0.07,-0.16c0,0 0,-0.02 -0.01,-0.04c-0.02,-0.04 -0.04,-0.07 -0.05,-0.09c0,0 0,-0.01 0,-0.03c-0.08,-0.18 -0.15,-0.35 -0.23,-0.5c-0.1,-0.21 -0.22,-0.4 -0.33,-0.6c-0.02,-0.05 -0.05,-0.09 -0.08,-0.16c-0.22,-0.32 -0.43,-0.62 -0.63,-0.92c0,-0.01 -0.01,-0.02 -0.03,-0.04c-0.39,-0.51 -0.82,-0.97 -1.29,-1.38c-0.15,-0.12 -0.31,-0.24 -0.47,-0.36c0,0 0,0.01 0,-0.01c-0.04,-0.04 -0.07,-0.08 -0.11,-0.1c-0.59,-0.43 -1.22,-0.82 -1.89,-1.11c-0.14,-0.06 -0.31,-0.03 -0.46,-0.04c-0.03,0 -0.07,0.05 -0.09,0.08c-0.21,0.25 -0.41,0.5 -0.61,0.75c-0.45,0.57 -0.9,1.14 -1.34,1.71c-0.07,0.09 -0.14,0.12 -0.25,0.12c-0.28,-0.01 -0.56,0 -0.85,0c-0.1,0 -0.18,0.01 -0.28,0.01c-0.04,-0.01 -0.07,0 -0.12,-0.01c-0.23,0 -0.44,0.01 -0.67,0.01c-0.31,-0.01 -0.6,-0.01 -0.89,-0.01c-0.1,0 -0.18,-0.02 -0.24,-0.11c-0.08,-0.11 -0.17,-0.21 -0.26,-0.32c-0.17,-0.21 -0.35,-0.43 -0.52,-0.65c0,-0.02 -0.01,-0.02 -0.02,-0.02z" fill="#007AFF" id="svg_2"/>
  <path d="m16.81,25.21c0.03,0.17 0.06,0.33 0.09,0.52c0.02,0.05 0.03,0.09 0.04,0.12c0.01,0.08 0.02,0.16 0.04,0.27c0.01,0.05 0.02,0.07 0.03,0.08c0.01,0.05 0.01,0.1 0.03,0.17c0,0.01 0.01,0.02 0.01,0.02c0,0.03 0.01,0.07 0.01,0.13c0.01,0.04 0.02,0.06 0.03,0.08c0,0.03 0.01,0.06 0.01,0.12c0.01,0.04 0.02,0.06 0.03,0.08c0.01,0.05 0.01,0.09 0.02,0.16c0.01,0.02 0.02,0.03 0.02,0.03c0,0.02 0,0.04 0.01,0.09c0.01,0.06 0.02,0.08 0.03,0.11c0.01,0.05 0.01,0.1 0.02,0.17c0.01,0.01 0.02,0.02 0.02,0.02c0,0.02 0,0.04 0,0.09c0.02,0.06 0.03,0.09 0.04,0.12c0.01,0.05 0.01,0.1 0.02,0.16c0.01,0.02 0.02,0.03 0.02,0.03c0.01,0.1 0.03,0.2 0.06,0.33c0.02,0.09 0.04,0.16 0.06,0.23c0,0.03 0,0.07 0.01,0.12c0.01,0.04 0.02,0.06 0.02,0.08c0.03,0.13 0.05,0.25 0.08,0.4c0.02,0.13 0.05,0.22 0.07,0.32c0.03,0.16 0.05,0.33 0.08,0.51c0,0.02 0,0.03 0,0.03c0,0.01 -0.01,0.02 -0.04,0.04c-0.05,0.06 -0.08,0.09 -0.11,0.13c0,0 0,0 -0.01,0c-0.11,0.11 -0.21,0.21 -0.31,0.31c-0.01,0.01 -0.02,0.01 -0.05,0.04c-0.04,0.05 -0.08,0.08 -0.11,0.12c0,0 0,0.01 -0.01,0.01c-0.06,0.05 -0.1,0.1 -0.15,0.15c0,0 0.01,0 -0.01,0.01c-0.21,0.21 -0.42,0.42 -0.62,0.63c-0.01,0 -0.02,0 -0.05,0.03c-0.04,0.05 -0.08,0.09 -0.11,0.12c0,0 0,0.01 -0.01,0.01c-0.13,0.12 -0.25,0.23 -0.36,0.35c-0.23,0.23 -0.47,0.47 -0.7,0.71c0,0 0.01,0 -0.01,0.01c-0.23,0.22 -0.45,0.44 -0.67,0.67c-0.01,0 -0.02,0 -0.04,0.03c-0.1,0.1 -0.19,0.19 -0.27,0.28c0,0 0,0 -0.01,0c-0.06,0.06 -0.11,0.11 -0.15,0.16c0,0 0,0 -0.01,0c-0.06,0.06 -0.11,0.11 -0.15,0.16c-0.28,0.26 -0.55,0.53 -0.84,0.81c-0.04,0.04 -0.06,0.07 -0.08,0.1c-0.01,0 -0.02,0 -0.04,0.03c-0.1,0.1 -0.18,0.19 -0.27,0.29c-0.01,0 -0.03,0 -0.07,0c-0.07,-0.08 -0.13,-0.14 -0.18,-0.2c0.14,0.01 0.18,-0.05 0.18,-0.16c0,-0.21 -0.02,-0.41 0,-0.61c0.02,-0.24 0.01,-0.48 0.02,-0.72c0,-0.12 0.01,-0.23 0.01,-0.35c0.01,-0.12 0,-0.24 0,-0.36c-0.01,-0.17 -0.02,-0.35 -0.02,-0.52c0,-0.2 0.02,-0.39 0.03,-0.59c0,-0.17 0,-0.33 -0.01,-0.49c-0.01,-0.27 -0.02,-0.54 -0.02,-0.8c0,-0.16 0.03,-0.32 0.03,-0.47c0,-0.35 0,-0.7 0,-1.05c0.01,-0.21 0.03,-0.41 0.04,-0.61c0,-0.07 0,-0.13 -0.01,-0.2c-0.01,-0.1 -0.03,-0.21 -0.03,-0.31c0,-2.38 0,-4.77 0,-7.15c0,-0.06 0.02,-0.14 0,-0.2c-0.11,-0.29 0.02,-0.59 -0.03,-0.89c-0.02,-0.18 0.05,-0.37 -0.01,-0.56c-0.01,-0.03 0,-0.08 0.01,-0.11c0.01,-0.12 0.03,-0.24 0.03,-0.36c-0.01,-1.53 0.03,-3.07 -0.04,-4.61c-0.03,-0.92 0.05,-1.85 -0.04,-2.77c-0.01,-0.18 -0.02,-0.19 -0.19,-0.24c-0.05,-0.01 -0.09,-0.03 -0.14,-0.03c-0.08,-0.01 -0.11,-0.07 -0.09,-0.15c0.6,0 1.18,0 1.77,0c0.01,0.01 0.03,0.01 0.05,0.01c0,0 0.02,0 0.02,0c0.01,0.07 0.02,0.13 0.03,0.21c0.01,0.05 0.02,0.06 0.02,0.08c0.01,0.03 0.01,0.07 0.02,0.12c0.01,0.04 0.02,0.06 0.02,0.08c0.03,0.15 0.06,0.3 0.09,0.47c0.02,0.05 0.02,0.07 0.03,0.09c0,0.03 0.01,0.06 0.02,0.11c0.01,0.05 0.01,0.07 0.02,0.08c0.02,0.1 0.04,0.2 0.06,0.32c0.01,0.04 0.02,0.06 0.02,0.08c0,0.02 0.01,0.04 0.01,0.08c0.01,0.04 0.02,0.06 0.03,0.08c0,0.02 0,0.04 0,0.08c0.02,0.06 0.03,0.09 0.04,0.12c0.04,0.24 0.08,0.48 0.13,0.75c0.01,0.04 0.02,0.06 0.03,0.08c0,0.02 0,0.04 0.01,0.08c0.01,0.04 0.02,0.06 0.03,0.08c0.01,0.09 0.03,0.19 0.05,0.31c0.01,0.05 0.02,0.06 0.03,0.08c0,0.04 0,0.07 0.01,0.12c0.01,0.04 0.02,0.06 0.02,0.08c0,0.02 0.01,0.04 0.01,0.08c0.01,0.06 0.03,0.09 0.04,0.12c0,0.05 0.01,0.1 0.02,0.16c0.01,0.02 0.01,0.02 0.01,0.02c0.01,0.04 0.01,0.07 0.02,0.13c0.01,0.05 0.02,0.07 0.03,0.09c0,0.03 0,0.06 0.01,0.11c0.01,0.05 0.02,0.06 0.03,0.08c0,0.02 0,0.04 0,0.08c0.02,0.04 0.02,0.06 0.03,0.08c0.01,0.05 0.01,0.09 0.02,0.16c0.01,0.04 0.02,0.06 0.03,0.08c0.02,0.1 0.03,0.2 0.06,0.32c0.02,0.1 0.04,0.17 0.05,0.23c0.02,0.12 0.04,0.24 0.07,0.36c0,0.02 0.01,0.03 0.01,0.03c0,0.03 0.01,0.07 0.01,0.13c0.03,0.11 0.05,0.2 0.07,0.28c0.02,0.09 0.03,0.19 0.05,0.31c0.02,0.04 0.02,0.06 0.03,0.08c0,0.03 0.01,0.07 0.01,0.12c0.03,0.11 0.05,0.2 0.07,0.28c0,0.03 0.01,0.06 0.01,0.12c0.02,0.04 0.02,0.06 0.03,0.08c0,0.03 0.01,0.06 0.01,0.11c0.02,0.05 0.02,0.07 0.03,0.09c0,0.03 0.01,0.06 0.01,0.11c0.03,0.1 0.05,0.17 0.06,0.24c0.01,0.03 0.01,0.06 0.02,0.12c0.01,0.06 0.02,0.09 0.03,0.12c0,0.03 0.01,0.06 0.01,0.12c0.02,0.04 0.02,0.06 0.03,0.08c0.01,0.07 0.02,0.14 0.04,0.24c0.01,0.05 0.02,0.08 0.03,0.12c0.01,0.04 0.01,0.08 0.02,0.15c0.01,0.04 0.02,0.06 0.03,0.08c0,0.04 0.01,0.07 0.02,0.12c0,0.03 0,0.04 0.01,0.04c0.01,0.07 0.03,0.14 0.04,0.24c0.02,0.07 0.03,0.11 0.04,0.16c0.02,0.09 0.04,0.19 0.06,0.31c0.01,0.04 0.02,0.06 0.02,0.08c0.01,0.03 0.01,0.06 0.02,0.12c0.02,0.11 0.04,0.2 0.06,0.28c0.01,0.05 0.02,0.1 0.03,0.16c0,0.02 0.01,0.03 0.01,0.03c0.01,0.05 0.01,0.1 0.02,0.17c0.01,0.02 0.02,0.03 0.02,0.03c0.01,0.06 0.02,0.12 0.03,0.21c0.02,0.08 0.04,0.14 0.05,0.19c0.01,0.03 0.01,0.06 0.02,0.12c0.01,0.04 0.02,0.06 0.02,0.08c0.03,0.13 0.05,0.27 0.08,0.43c0.02,0.06 0.03,0.09 0.04,0.13c0,0.04 0.01,0.08 0.02,0.15c0.01,0.04 0.01,0.06 0.02,0.08c0.03,0.14 0.05,0.27 0.08,0.44c0.01,0.06 0.03,0.09 0.04,0.12c0.02,0.11 0.04,0.23 0.06,0.36c0.01,0.01 0.02,0.02 0.02,0.02c0.03,0.17 0.06,0.33 0.09,0.52c0.01,0.05 0.02,0.07 0.03,0.09c0,0.03 0.01,0.06 0.01,0.11c0.01,0.05 0.02,0.07 0.03,0.08c0,0.04 0,0.07 0.01,0.12c0.03,0.1 0.04,0.17 0.06,0.24c0.01,0.03 0.01,0.06 0.02,0.12c0.01,0.04 0.02,0.06 0.02,0.08c0.03,0.15 0.06,0.3 0.09,0.47c0.01,0.06 0.02,0.09 0.03,0.12z" fill="#006CE2" id="svg_3"/>
  <path d="m11.98,10.5c-0.01,0.07 0.02,0.13 0.1,0.14c0.05,0 0.09,0.02 0.14,0.03c0.17,0.05 0.18,0.06 0.19,0.24c0.09,0.92 0.01,1.85 0.04,2.77c0.07,1.54 0.03,3.08 0.04,4.61c0,0.12 -0.02,0.24 -0.03,0.36c-0.01,0.03 -0.02,0.08 -0.01,0.11c0.06,0.19 -0.01,0.38 0.01,0.56c0.05,0.3 -0.08,0.6 0.03,0.89c0.02,0.06 0,0.14 0,0.2c0,2.38 0,4.77 0,7.15c0,0.1 0.02,0.21 0.03,0.31c0.01,0.07 0.01,0.13 0.01,0.2c-0.01,0.2 -0.03,0.4 -0.04,0.61c0,0.35 0,0.7 0,1.05c0,0.15 -0.03,0.31 -0.03,0.47c0,0.26 0.01,0.53 0.02,0.8c0.01,0.16 0.01,0.32 0.01,0.49c-0.01,0.2 -0.03,0.39 -0.03,0.59c0,0.17 0.01,0.35 0.02,0.52c0,0.12 0.01,0.24 0,0.36c0,0.12 -0.01,0.23 -0.01,0.35c-0.01,0.24 0,0.48 -0.02,0.72c-0.02,0.2 0,0.4 0,0.61c0,0.11 -0.04,0.17 -0.19,0.15c-0.04,-0.02 -0.06,-0.03 -0.08,-0.04c0,-0.01 -0.01,-0.02 -0.03,-0.04c-0.05,-0.05 -0.09,-0.08 -0.13,-0.12c-0.11,-0.11 -0.22,-0.22 -0.35,-0.35c-0.04,-0.04 -0.06,-0.06 -0.09,-0.08c-0.07,-0.07 -0.14,-0.15 -0.22,-0.24c-0.06,-0.05 -0.1,-0.08 -0.13,-0.12c-0.01,-0.01 -0.01,-0.02 -0.04,-0.04c-0.1,-0.1 -0.19,-0.19 -0.28,-0.27c-0.02,-0.02 -0.04,-0.05 -0.07,-0.08c-0.04,-0.04 -0.06,-0.06 -0.09,-0.08c0,-0.01 -0.01,-0.02 -0.03,-0.04c-0.04,-0.04 -0.06,-0.06 -0.09,-0.08c-0.04,-0.05 -0.09,-0.09 -0.15,-0.16c-0.05,-0.05 -0.09,-0.08 -0.13,-0.11c-0.05,-0.07 -0.11,-0.13 -0.19,-0.21c-0.08,-0.07 -0.14,-0.13 -0.2,-0.19c-0.34,-0.34 -0.67,-0.68 -1.02,-1.03c-0.09,-0.1 -0.17,-0.17 -0.25,-0.24c-0.03,-0.03 -0.06,-0.07 -0.11,-0.12c-0.05,-0.04 -0.08,-0.06 -0.11,-0.09c0,0 0,0 -0.01,-0.01c-0.03,-0.04 -0.06,-0.06 -0.09,-0.09c0,-0.01 -0.01,-0.03 -0.03,-0.05c-0.05,-0.05 -0.09,-0.08 -0.13,-0.11c-0.05,-0.06 -0.11,-0.12 -0.19,-0.2c-0.05,-0.05 -0.09,-0.09 -0.12,-0.12c-0.01,-0.01 -0.01,-0.02 -0.04,-0.04c-0.05,-0.05 -0.09,-0.08 -0.12,-0.12c0,-0.01 -0.01,-0.02 -0.04,-0.04c-0.05,-0.05 -0.08,-0.08 -0.12,-0.11c-0.06,-0.07 -0.12,-0.13 -0.19,-0.21c-0.13,-0.1 -0.16,-0.22 -0.13,-0.35c0.01,-0.04 0.01,-0.08 0.01,-0.12c0.01,-0.04 0.02,-0.08 0.04,-0.15c0.01,-0.06 0.01,-0.09 0.02,-0.12c0,-0.02 0.01,-0.04 0.02,-0.08c0.03,-0.18 0.06,-0.33 0.08,-0.48c0.01,-0.03 0.02,-0.06 0.04,-0.11c0,-0.04 0,-0.07 0.01,-0.09c0,-0.03 0.01,-0.06 0.03,-0.11c0.03,-0.17 0.05,-0.3 0.08,-0.44c0.01,-0.03 0.02,-0.06 0.03,-0.11c0.01,-0.05 0.01,-0.07 0.01,-0.09c0.01,-0.03 0.02,-0.06 0.03,-0.11c0.03,-0.13 0.04,-0.23 0.06,-0.33c0,-0.01 0.01,-0.03 0.02,-0.07c0.01,-0.06 0.01,-0.09 0.02,-0.12c0,-0.03 0.01,-0.06 0.02,-0.11c0.01,-0.05 0.02,-0.07 0.02,-0.09c0,-0.02 0.01,-0.04 0.02,-0.08c0.04,-0.19 0.07,-0.35 0.1,-0.51c0.01,-0.02 0.01,-0.04 0.02,-0.08c0.01,-0.04 0.01,-0.06 0.01,-0.08c0.01,-0.03 0.02,-0.06 0.03,-0.12c0.04,-0.18 0.07,-0.33 0.09,-0.48c0.01,-0.02 0.02,-0.03 0.03,-0.07c0.01,-0.06 0.01,-0.09 0.02,-0.13c0,-0.01 0.01,-0.03 0.02,-0.07c0.04,-0.21 0.07,-0.38 0.1,-0.56c0,-0.02 0.01,-0.03 0.02,-0.08c0.05,-0.24 0.09,-0.46 0.13,-0.67c0.01,-0.02 0.01,-0.04 0.03,-0.08c0.06,-0.31 0.11,-0.59 0.17,-0.87c0,-0.03 0.01,-0.06 0.03,-0.12c0.02,-0.08 0.03,-0.14 0.04,-0.2c0.07,-0.34 0.13,-0.69 0.2,-1.03c0.01,-0.03 0.01,-0.06 0.03,-0.12c0.04,-0.21 0.08,-0.4 0.11,-0.59c0,0 0,0 0.01,-0.01c0,0 0.01,-0.01 0.01,-0.01l-0.01,-0.01c0.01,-0.04 0.02,-0.09 0.04,-0.16c0.01,-0.05 0.01,-0.07 0.01,-0.09c0.01,-0.03 0.02,-0.06 0.03,-0.12c0.03,-0.16 0.06,-0.3 0.08,-0.43c0.01,-0.05 0.02,-0.09 0.04,-0.15c0.01,-0.05 0.01,-0.07 0.01,-0.09c0.01,-0.03 0.02,-0.06 0.03,-0.12c0.05,-0.24 0.09,-0.46 0.13,-0.67c0.01,-0.03 0.02,-0.06 0.03,-0.12c0.04,-0.18 0.06,-0.33 0.09,-0.48c0.01,-0.03 0.02,-0.06 0.03,-0.11c0.01,-0.04 0.01,-0.07 0.01,-0.09c0.01,-0.01 0.01,-0.03 0.02,-0.08c0.04,-0.17 0.07,-0.32 0.09,-0.47c0.01,-0.03 0.02,-0.06 0.03,-0.11c0.01,-0.05 0.01,-0.07 0.01,-0.09c0.01,-0.03 0.02,-0.06 0.04,-0.12c0.03,-0.17 0.06,-0.32 0.09,-0.47c0,-0.03 0.01,-0.06 0.02,-0.12c0.05,-0.23 0.09,-0.43 0.13,-0.64c0,-0.03 0.01,-0.06 0.03,-0.11c0.05,-0.26 0.09,-0.49 0.14,-0.72c0,-0.02 0.01,-0.03 0.02,-0.07c0,-0.05 0,-0.07 0,-0.09c0.01,-0.03 0.02,-0.06 0.04,-0.11c0.02,-0.13 0.04,-0.23 0.06,-0.32c0,-0.02 0.01,-0.04 0.02,-0.08c0,-0.04 0.01,-0.06 0.01,-0.08c0,-0.03 0.01,-0.06 0.03,-0.12c0.01,-0.05 0.01,-0.09 0.02,-0.12c0,-0.02 0.01,-0.03 0.02,-0.08c0.07,-0.31 0.13,-0.6 0.19,-0.88c0.02,-0.12 0.04,-0.23 0.06,-0.35c0,-0.03 0.01,-0.06 0.03,-0.11c0.01,-0.06 0.01,-0.09 0.01,-0.12c0.01,-0.02 0.01,-0.04 0.03,-0.08c0.03,-0.19 0.06,-0.35 0.09,-0.52c0.01,-0.02 0.01,-0.03 0.02,-0.08c0.05,-0.24 0.09,-0.45 0.13,-0.67c0.01,-0.03 0.02,-0.06 0.03,-0.12c0.06,-0.21 0.1,-0.4 0.16,-0.6c0.12,-0.11 0.25,-0.16 0.4,-0.15c0.1,0 0.2,0 0.29,0c0.07,0 0.1,-0.04 0.11,-0.1c0.03,-0.01 0.05,0 0.07,0z" fill="#007AFF" id="svg_4"/>
  <text fill="#000000" font-family="Serif" font-size="29.69" font-weight="bold" id="svg_5" stroke-width="0" text-anchor="middle" transform="matrix(0.999902 0.0139973 -0.0139973 0.999902 -0.489075 -3.35474)" x="55.2" xml:space="preserve" y="30.97">Job</text>
  <text fill="#000000" font-family="Serif" font-size="29.69" id="svg_6" stroke-width="0" text-anchor="middle" x="127" xml:space="preserve" y="29.9">Connect</text>
 </g>
</svg>